<?xml version="1.0" encoding="iso-8859-1"?>
<!-- Generator: Adobe Illustrator 19.0.0, SVG Export Plug-In . SVG Version: 6.00 Build 0)  -->
<svg version="1.1" id="Layer_1" xmlns="http://www.w3.org/2000/svg" xmlns:xlink="http://www.w3.org/1999/xlink" x="0px" y="0px"
	 viewBox="0 0 293.846 293.846" style="enable-background:new 0 0 293.846 293.846;" xml:space="preserve">
<g>
	<path style="fill:#FFFFFF;" d="M25.831,223.915l33.719-33.719c3.994-3.994,10.469-3.994,14.462,0l0,0
		c3.994,3.994,3.994,10.469,0,14.462l-33.719,33.719c-4.193,4.193-4.193,10.99,0,15.182l0,0c4.193,4.193,10.99,4.193,15.182,0
		l33.719-33.719c3.994-3.994,10.468-3.994,14.462,0l0,0c3.994,3.994,3.994,10.469,0,14.462l-33.719,33.719
		c-4.193,4.193-4.193,10.99,0,15.182l0,0c4.192,4.193,10.99,4.193,15.182,0l40.95-40.95l16.581-16.581
		c6.991-6.991,6.991-18.327,0-25.318L93.496,151.2c-6.991-6.991-18.327-6.991-25.318,0l-16.581,16.581l-40.95,40.95
		c-4.192,4.193-4.192,10.99,0,15.182l0,0C14.841,228.107,21.639,228.107,25.831,223.915z"/>
	<g>
		<path style="fill:#F59D00;" d="M225.411,19.864L105.554,163.257l25.042,25.042L273.989,68.442
			c15.544-12.993,16.594-36.521,2.268-50.846l0,0C261.932,3.271,238.404,4.32,225.411,19.864z M261.618,32.235
			c4.556,4.556,4.556,11.943,0,16.499s-11.943,4.556-16.499,0s-4.556-11.943,0-16.499C249.675,27.679,257.062,27.679,261.618,32.235
			z"/>
		<g>
			<path style="fill:#414042;" d="M281.56,12.293c-17.493-17.494-46.163-16.07-61.904,2.761L105.059,152.155l-6.257-6.257
				c-9.903-9.905-26.019-9.905-35.924,0L5.346,203.429c-7.127,7.127-7.128,18.66-0.001,25.789c7.127,7.127,18.663,7.128,25.789,0
				l33.719-33.719c2.549-2.549,6.403,1.308,3.856,3.856l-33.72,33.719c-7.126,7.126-7.127,18.661,0,25.789
				c7.127,7.127,18.662,7.128,25.789,0l33.719-33.719c2.549-2.549,6.395,1.317,3.856,3.855l-33.719,33.719
				c-7.127,7.126-7.128,18.662,0,25.789c7.117,7.117,18.686,7.103,25.789,0l57.531-57.532c9.904-9.904,9.904-26.02,0-35.924
				l-6.257-6.257L278.799,74.197C297.704,58.395,298.987,29.718,281.56,12.293z M137.349,220.369L79.818,277.9
				c-3.021,3.021-7.605-1.547-4.576-4.576l33.719-33.719c11.053-11.053,3.331-30.26-12.534-30.26c-4.735,0-9.187,1.844-12.535,5.192
				l-33.72,33.719c-3.006,3.008-7.602-1.548-4.576-4.576l33.72-33.72c6.911-6.911,6.911-18.157,0-25.068
				c-6.911-6.913-18.158-6.912-25.069,0l-33.719,33.719l0,0c-3.005,3.007-7.604-1.546-4.576-4.576l57.532-57.532
				c4.065-4.065,10.646-4.066,14.712,0c22.411,22.411,26.884,26.884,49.154,49.154C141.414,209.723,141.415,216.303,137.349,220.369
				z M269.179,62.688L131.05,178.145l-15.342-15.342L231.165,24.674c10.176-12.174,28.556-13.009,39.789-1.775
				C282.173,34.119,281.369,52.498,269.179,62.688z"/>
			<path style="fill:#414042;" d="M239.816,26.932c-7.491,7.491-7.491,19.615,0,27.105c7.491,7.491,19.615,7.491,27.105,0
				c7.473-7.473,7.473-19.632,0-27.105C259.449,19.458,247.288,19.458,239.816,26.932z M256.315,43.431
				c-1.625,1.624-4.268,1.624-5.893,0c-1.625-1.625-1.625-4.268,0-5.893c1.625-1.624,4.267-1.625,5.893,0
				C257.939,39.163,257.939,41.806,256.315,43.431z"/>
		</g>
	</g>
</g>
<g>
</g>
<g>
</g>
<g>
</g>
<g>
</g>
<g>
</g>
<g>
</g>
<g>
</g>
<g>
</g>
<g>
</g>
<g>
</g>
<g>
</g>
<g>
</g>
<g>
</g>
<g>
</g>
<g>
</g>
</svg>
